<svg width="20" height="18" viewBox="0 0 20 18" fill="none" xmlns="http://www.w3.org/2000/svg">
<path d="M14.8358 0.0705166C14.2724 -0.14184 13.6483 0.156133 13.4444 0.72444C13.3639 0.924662 13.356 1.14106 13.3962 1.33724L11.4281 2.27363C11.3081 2.1179 11.1477 1.99588 10.9558 1.92173C10.3917 1.70937 9.76818 2.00397 9.56365 2.57632C9.35582 3.15205 9.64414 3.78979 10.2036 4.00282C10.3956 4.0763 10.5962 4.08844 10.7882 4.05136L11.6841 6.07448C11.5278 6.19717 11.4037 6.36099 11.3279 6.56526C11.12 7.14165 11.4077 7.7794 11.9678 7.99175C12.5319 8.20411 13.1561 7.91018 13.3639 7.33783C13.5724 6.76548 13.2801 6.12369 12.7239 5.91133C12.528 5.83785 12.3281 5.82572 12.14 5.86212L11.2441 3.839C11.3958 3.71631 11.5199 3.55316 11.5918 3.34822C11.6637 3.148 11.6802 2.93969 11.6399 2.74351L13.608 1.80375C13.7281 1.9588 13.8878 2.0815 14.0804 2.15498C14.6439 2.36734 15.264 2.07341 15.4719 1.50106C15.6803 0.928706 15.396 0.282873 14.8358 0.0705166ZM19.9847 8.81758C19.8844 8.2122 19.3242 7.80771 18.7285 7.90614C18.5246 7.94254 18.3366 8.04096 18.1921 8.17175L16.416 6.90031C16.4839 6.72031 16.5084 6.512 16.4721 6.30369C16.3724 5.70302 15.8123 5.29786 15.2244 5.40033C14.632 5.5028 14.2361 6.07448 14.3318 6.68391C14.3681 6.89222 14.4558 7.07221 14.5799 7.21918L13.3204 9.02185C13.1363 8.94837 12.9357 8.91938 12.7279 8.95241C12.1361 9.05825 11.7402 9.62656 11.8359 10.236C11.9401 10.8367 12.5042 11.2452 13.0921 11.1393C13.6799 11.0369 14.0804 10.4645 13.9762 9.86386C13.9438 9.65555 13.8521 9.47151 13.7281 9.3205L14.9922 7.51783C15.1763 7.5994 15.3762 7.62367 15.584 7.58726C15.7925 7.55019 15.9759 7.45243 16.1204 7.32165L17.9005 8.59242C17.8285 8.77242 17.8081 8.98073 17.8365 9.18971C17.94 9.79038 18.4962 10.1949 19.0927 10.0924C19.6884 9.99464 20.0843 9.41825 19.9847 8.81758ZM16.984 9.34072C16.8805 8.74006 16.3243 8.33085 15.7278 8.43736C15.14 8.53916 14.7402 9.11151 14.8444 9.71285C14.944 10.3176 15.5042 10.722 16.092 10.6243C16.6885 10.5178 17.0843 9.94543 16.984 9.34072ZM15.1479 17.7399C15.6124 17.3516 15.6724 16.6532 15.2884 16.1826C15.1558 16.0195 14.9843 15.9009 14.8002 15.8355L14.9882 13.6283C15.1763 13.6 15.3643 13.5218 15.52 13.3829C15.9845 12.9946 16.0439 12.2915 15.6638 11.8256C15.2799 11.3517 14.5963 11.2904 14.1319 11.6827C13.9762 11.8175 13.86 11.9854 13.8 12.1735L11.6439 11.9564C11.6122 11.7602 11.5357 11.5641 11.3998 11.3969C11.0198 10.9263 10.3362 10.865 9.87572 11.2533C9.4119 11.6456 9.35186 12.3447 9.73585 12.8106C10.1159 13.2852 10.804 13.3465 11.2599 12.9582C11.4202 12.8186 11.5317 12.6474 11.5918 12.4634L13.7518 12.6798C13.7802 12.88 13.8561 13.0721 13.992 13.24C14.1279 13.4038 14.3001 13.5218 14.4881 13.5872L14.3001 15.7943C14.1081 15.8233 13.924 15.9049 13.7644 16.0397C13.2999 16.428 13.2399 17.1312 13.6239 17.597C13.9999 18.0716 14.6881 18.137 15.1479 17.7399ZM13.2042 15.3534C13.6641 14.9611 13.7241 14.262 13.3441 13.7874C12.9601 13.3175 12.2759 13.2521 11.8121 13.6445C11.3523 14.0328 11.2922 14.7359 11.6723 15.2018C12.0602 15.6764 12.7398 15.7418 13.2042 15.3534ZM5.16366 17.928C5.72776 18.141 6.3519 17.8464 6.55577 17.2741C6.6356 17.0739 6.64352 16.8656 6.60393 16.6694L8.57202 15.7289C8.6921 15.8847 8.85176 16.0074 9.04375 16.0808C9.60785 16.2932 10.232 15.9993 10.4359 15.4269C10.6437 14.8505 10.356 14.2128 9.79588 14.0004C9.60389 13.931 9.40398 13.9141 9.21199 13.9512L8.31603 11.9362C8.47173 11.8094 8.59577 11.6416 8.67164 11.4414C8.88013 10.865 8.59181 10.2279 8.03167 10.0149C7.46757 9.80251 6.84343 10.1012 6.6356 10.6728C6.42778 11.2411 6.72005 11.8829 7.27558 12.0953C7.47153 12.1688 7.6721 12.1816 7.85947 12.1445L8.75609 14.1676C8.60369 14.2903 8.47965 14.4541 8.40774 14.6584C8.33582 14.8627 8.31999 15.075 8.35957 15.2712L6.39149 16.2076C6.27141 16.0519 6.11175 15.9292 5.91976 15.8557C5.35565 15.6433 4.73547 15.9379 4.52765 16.5096C4.31586 17.0779 4.60352 17.7157 5.16366 17.928ZM6.22391 15.0137C6.78801 15.2267 7.40753 14.9281 7.61602 14.3557C7.82384 13.7874 7.53552 13.1463 6.97604 12.9333C6.41194 12.7209 5.7878 13.0155 5.57998 13.5872C5.37149 14.1595 5.65981 14.8013 6.22391 15.0137ZM0.0155032 9.18499C0.115128 9.78633 0.67527 10.1908 1.2717 10.0884C1.47557 10.0519 1.6636 9.96161 1.80743 9.82274L3.58352 11.0942C3.51557 11.2823 3.49181 11.4825 3.52744 11.6908C3.62773 12.2915 4.18787 12.7007 4.77572 12.5942C5.36753 12.4917 5.76339 11.92 5.66772 11.3187C5.63144 11.1104 5.54369 10.9263 5.41965 10.7753L6.67981 8.97264C6.86388 9.05421 7.06379 9.07915 7.27162 9.04207C7.86409 8.94028 8.25995 8.36793 8.16362 7.76726C8.06004 7.16188 7.49594 6.75739 6.90743 6.85581C6.31957 6.96165 5.91976 7.52996 6.024 8.13872C6.05567 8.3477 6.14804 8.52703 6.27141 8.67466L5.00796 10.4767C4.82388 10.4032 4.62331 10.3749 4.41549 10.4113C4.20766 10.4443 4.02359 10.538 3.87976 10.6728L2.09971 9.40207C2.17162 9.22207 2.19141 9.0178 2.1637 8.80949C2.05946 8.20411 1.50328 7.79962 0.907508 7.89805C0.311739 8.00793 -0.0847813 8.58028 0.0155032 9.18499ZM3.01546 8.65781C3.11971 9.26319 3.67589 9.66768 4.27166 9.56926C4.85951 9.46342 5.25999 8.88702 5.15575 8.28635C5.05546 7.68501 4.49532 7.27648 3.90747 7.383C3.3117 7.48479 2.91584 8.05714 3.01546 8.65781ZM4.85159 0.258604C4.38778 0.646913 4.32774 1.35005 4.71172 1.81588C4.84368 1.97903 5.01587 2.09768 5.19995 2.16307L5.01192 4.37023C4.82388 4.40326 4.63585 4.48079 4.47948 4.61562C4.01567 5.00797 3.95563 5.70707 4.33566 6.1729C4.71964 6.64683 5.40382 6.70817 5.86763 6.31987C6.024 6.18099 6.13946 6.00908 6.1995 5.82572L8.35561 6.04212C8.38794 6.24234 8.46382 6.43447 8.59973 6.60233C8.97975 7.07626 9.66789 7.13761 10.1238 6.74525C10.5876 6.35694 10.6476 5.65381 10.2637 5.18797C9.88363 4.71337 9.19616 4.6527 8.7396 5.04505C8.57994 5.17988 8.46778 5.34707 8.40774 5.53516L6.24766 5.31876C6.21995 5.12258 6.14342 4.9264 6.0075 4.75854C5.87159 4.5954 5.69939 4.47675 5.51136 4.41944L5.69939 2.20419C5.89139 2.17521 6.07942 2.09768 6.23578 1.96285C6.6996 1.57049 6.75964 0.871404 6.37565 0.397478C5.99959 -0.0683577 5.31145 -0.137795 4.85159 0.258604ZM6.79593 2.65385C6.33541 3.04216 6.27603 3.7453 6.65605 4.21113C7.04004 4.68506 7.72356 4.7464 8.18803 4.35405C8.64789 3.96574 8.70793 3.26665 8.3279 2.79677C7.93996 2.32689 7.25974 2.25745 6.79593 2.65385ZM13.7763 2.99295C13.2122 2.78059 12.592 3.07452 12.3841 3.64687C12.1763 4.21922 12.464 4.86101 13.0241 5.07337C13.5882 5.28168 14.2124 4.98775 14.4202 4.4154C14.628 3.84305 14.3404 3.2053 13.7763 2.99295Z" fill="url(#paint0_linear_38_13223)"/>
<defs>
<linearGradient id="paint0_linear_38_13223" x1="2.72285" y1="-4.01253" x2="19.1356" y2="23.9939" gradientUnits="userSpaceOnUse">
<stop stop-color="#4B5FFA"/>
<stop offset="1" stop-color="#C158E4"/>
</linearGradient>
</defs>
</svg>
