<svg width="500" height="279" viewBox="0 0 500 279" fill="none" xmlns="http://www.w3.org/2000/svg">
<path d="M295.778 0.637797C290.57 -1.28289 284.802 1.41217 282.918 6.55229C282.174 8.36322 282.101 10.3205 282.473 12.0948L264.283 20.5642C263.174 19.1557 261.692 18.052 259.917 17.3813C254.704 15.4606 248.942 18.1252 247.051 23.3019C245.13 28.5091 247.795 34.2772 252.966 36.204C254.74 36.8687 256.594 36.9784 258.369 36.643L266.649 54.9414C265.204 56.0511 264.058 57.5328 263.356 59.3803C261.436 64.5936 264.094 70.3618 269.271 72.2825C274.485 74.2031 280.253 71.5447 282.174 66.368C284.101 61.1913 281.4 55.3865 276.259 53.4658C274.448 52.8012 272.601 52.6915 270.863 53.0207L262.582 34.7224C263.985 33.6126 265.131 32.1371 265.796 30.2834C266.46 28.4725 266.613 26.5884 266.241 24.8141L284.43 16.3143C285.54 17.7167 287.016 18.8264 288.796 19.491C294.003 21.4117 299.735 18.7532 301.656 13.5765C303.583 8.39981 300.955 2.55848 295.778 0.637797ZM343.364 79.7518C342.437 74.2763 337.26 70.6179 331.754 71.5081C329.87 71.8373 328.132 72.7276 326.797 73.9105L310.382 62.4107C311.01 60.7827 311.236 58.8986 310.9 57.0145C309.979 51.5817 304.802 47.9172 299.369 48.844C293.894 49.7708 290.235 54.9414 291.119 60.4535C291.455 62.3376 292.266 63.9656 293.412 65.2948L281.771 81.5993C280.07 80.9347 278.217 80.6725 276.296 80.9713C270.826 81.9286 267.168 87.0687 268.052 92.5808C269.015 98.0136 274.229 101.709 279.662 100.751C285.095 99.8245 288.796 94.6478 287.833 89.215C287.534 87.3309 286.686 85.6663 285.54 84.3005L297.223 67.996C298.924 68.7338 300.772 68.9533 302.693 68.624C304.62 68.2887 306.315 67.4045 307.65 66.2216L324.102 77.7153C323.437 79.3433 323.248 81.2274 323.51 83.1176C324.468 88.5504 329.608 92.2088 335.12 91.282C340.626 90.3979 344.285 85.1846 343.364 79.7518ZM315.632 84.4834C314.675 79.0506 309.534 75.3495 304.022 76.3128C298.589 77.2336 294.894 82.4103 295.857 87.8492C296.778 93.3186 301.955 96.977 307.388 96.0929C312.9 95.1295 316.559 89.9528 315.632 84.4834ZM298.662 160.451C302.955 156.939 303.51 150.622 299.961 146.366C298.735 144.891 297.15 143.817 295.449 143.226L297.186 123.263C298.924 123.007 300.662 122.3 302.101 121.044C306.394 117.531 306.943 111.172 303.43 106.958C299.882 102.672 293.564 102.117 289.272 105.666C287.833 106.885 286.759 108.404 286.205 110.105L266.277 108.141C265.985 106.367 265.277 104.593 264.021 103.081C260.509 98.8245 254.192 98.2696 249.935 101.782C245.649 105.33 245.094 111.653 248.643 115.867C252.155 120.159 258.515 120.714 262.728 117.202C264.21 115.94 265.241 114.391 265.796 112.727L285.759 114.684C286.022 116.495 286.723 118.233 287.979 119.751C289.235 121.233 290.827 122.3 292.564 122.891L290.827 142.854C289.052 143.116 287.351 143.854 285.875 145.073C281.582 148.586 281.028 154.945 284.576 159.158C288.052 163.451 294.412 164.042 298.662 160.451ZM280.698 138.866C284.948 135.318 285.503 128.995 281.991 124.702C278.442 120.452 272.119 119.861 267.832 123.409C263.582 126.921 263.027 133.281 266.539 137.494C270.125 141.787 276.406 142.378 280.698 138.866ZM206.386 162.152C211.599 164.079 217.368 161.415 219.252 156.238C219.99 154.427 220.063 152.543 219.697 150.768L237.886 142.263C238.996 143.671 240.472 144.781 242.246 145.445C247.46 147.366 253.228 144.708 255.112 139.531C257.033 134.318 254.375 128.549 249.198 126.629C247.423 126.001 245.576 125.848 243.801 126.184L235.52 107.958C236.96 106.812 238.106 105.294 238.807 103.483C240.734 98.2696 238.069 92.5076 232.892 90.5808C227.679 88.6601 221.91 91.3613 219.99 96.5319C218.069 101.672 220.77 107.477 225.904 109.397C227.715 110.062 229.569 110.178 231.301 109.843L239.588 128.141C238.179 129.251 237.033 130.732 236.368 132.58C235.703 134.427 235.557 136.348 235.923 138.122L217.734 146.592C216.624 145.183 215.148 144.073 213.374 143.409C208.16 141.488 202.428 144.153 200.508 149.323C198.55 154.463 201.209 160.232 206.386 162.152ZM216.185 135.793C221.398 137.72 227.124 135.019 229.051 129.842C230.972 124.702 228.307 118.903 223.136 116.977C217.923 115.056 212.154 117.72 210.233 122.891C208.306 128.068 210.971 133.872 216.185 135.793ZM158.805 83.0749C159.726 88.5138 164.903 92.1722 170.415 91.2454C172.3 90.9162 174.037 90.0991 175.367 88.843L191.782 100.343C191.154 102.044 190.934 103.855 191.263 105.739C192.19 111.172 197.367 114.873 202.8 113.91C208.27 112.983 211.929 107.812 211.044 102.373C210.709 100.489 209.898 98.8245 208.752 97.4587L220.398 81.1542C222.099 81.892 223.947 82.1176 225.868 81.7822C231.344 80.8615 235.002 75.6848 234.112 70.252C233.155 64.7765 227.941 61.1181 222.502 62.0083C217.069 62.9656 213.374 68.1057 214.337 73.6117C214.63 75.5019 215.483 77.1238 216.624 78.4591L204.947 94.7575C203.245 94.0929 201.392 93.8368 199.471 94.1661C197.55 94.4649 195.849 95.3124 194.52 96.5319L178.068 85.0383C178.733 83.4102 178.916 81.5627 178.659 79.6786C177.696 74.2031 172.556 70.5447 167.049 71.4349C161.543 72.4288 157.879 77.6055 158.805 83.0749ZM186.532 78.3067C187.495 83.7822 192.635 87.4406 198.142 86.5504C203.575 85.5931 207.276 80.3798 206.313 74.947C205.386 69.5081 200.209 65.8131 194.776 66.7765C189.269 67.6972 185.611 72.8739 186.532 78.3067ZM203.501 2.33898C199.215 5.85109 198.66 12.2107 202.209 16.424C203.428 17.8996 205.02 18.9727 206.721 19.5642L204.983 39.5271C203.245 39.8259 201.508 40.5271 200.062 41.7466C195.776 45.2953 195.221 51.6183 198.733 55.8316C202.282 60.1181 208.605 60.673 212.892 57.1609C214.337 55.9048 215.404 54.3499 215.959 52.6915L235.886 54.6487C236.185 56.4597 236.886 58.1974 238.142 59.7157C241.655 64.0022 248.015 64.557 252.228 61.0083C256.515 57.4962 257.07 51.1366 253.521 46.9233C250.009 42.6307 243.655 42.0819 239.435 45.6306C237.96 46.8501 236.923 48.3623 236.368 50.0635L216.404 48.1062C216.148 46.3318 215.441 44.5575 214.185 43.0392C212.929 41.5637 211.337 40.4905 209.599 39.9722L211.337 19.9361C213.111 19.6739 214.849 18.9727 216.294 17.7532C220.581 14.2045 221.136 7.88153 217.587 3.59504C214.111 -0.61827 207.752 -1.24631 203.501 2.33898ZM221.471 24.0031C217.215 27.5152 216.666 33.8748 220.179 38.0881C223.728 42.3746 230.045 42.9295 234.338 39.3808C238.588 35.8687 239.143 29.5457 235.63 25.2958C232.045 21.0459 225.758 20.4178 221.471 24.0031ZM285.985 27.0701C280.771 25.1494 275.04 27.8079 273.119 32.9846C271.198 38.1613 273.857 43.966 279.034 45.8867C284.247 47.7708 290.016 45.1124 291.936 39.9357C293.857 34.7589 291.199 28.9908 285.985 27.0701Z" fill="url(#paint0_linear_106_7344)"/>
<path d="M11.5961 233.078V208.527H0V202.101H30.6836V208.527H19.0876V233.078H11.5961Z" fill="white"/>
<path d="M33.6123 233.078V202.101H60.7655V208.527H41.1038V214.492H55.9146V220.428H41.1038V226.652H61.196V233.078H33.6123Z" fill="white"/>
<path d="M65.4434 233.078V202.101H72.9349V226.537H89.7836V233.078H65.4434Z" fill="white"/>
<path d="M92.999 233.078V202.101H120.152V208.527H100.491V214.492H115.301V220.428H100.491V226.652H120.583V233.078H92.999Z" fill="white"/>
<path d="M124.83 233.078V202.101H148.137L153.878 207.835V217.316L148.768 222.445L154.796 230.859V233.078H147.477L140.646 223.338H132.322V233.078H124.83ZM132.322 217.2H144.176L146.386 214.981V210.457L144.176 208.238H132.322V217.2Z" fill="white"/>
<path d="M158.013 233.078V227.2H164.184V207.979H158.013V202.101H177.875V207.979H171.675V227.2H177.875V233.078H158.013Z" fill="white"/>
<path d="M182.586 233.078V202.101H190.077V214.146H195.531L204.142 202.101H211.547V204.406L201.903 217.229L212.437 230.773V233.078H204.745L195.675 220.687H190.077V233.078H182.586Z" fill="white"/>
<path d="M229.275 233.078V202.101H253.07L259.5 208.555V226.623L253.07 233.078H229.275ZM236.767 226.652H249.368L252.008 224.001V211.178L249.368 208.527H236.767V226.652Z" fill="white"/>
<path d="M284.608 202.101L296.721 230.859V233.078H289.459L286.99 226.796H271.491L268.994 233.078H261.933V230.859L274.103 202.101H284.608ZM274.074 220.37H284.436L279.786 208.642H278.781L274.074 220.37Z" fill="white"/>
<path d="M308.044 233.078V208.527H296.448V202.101H327.132V208.527H315.536V233.078H308.044Z" fill="white"/>
<path d="M349.549 202.101L361.662 230.859V233.078H354.4L351.932 226.796H336.432L333.935 233.078H326.874V230.859L339.044 202.101H349.549ZM339.015 220.37H349.377L344.727 208.642H343.723L339.015 220.37Z" fill="white"/>
<path d="M364.979 233.078V202.101H376.345L383.492 220.024H384.468L391.615 202.101H402.895V233.078H395.519V210.688H394.83L387.625 228.612H380.22L373.044 210.688H372.327V233.078H364.979Z" fill="white"/>
<path d="M407.595 233.078V227.2H413.766V207.979H407.595V202.101H427.457V207.979H421.257V227.2H427.457V233.078H407.595Z" fill="white"/>
<path d="M432.169 233.078V202.101H443.621L455.39 225.01H456.136V202.101H463.283V233.078H451.831L440.062 210.14H439.316V233.078H432.169Z" fill="white"/>
<path d="M469.775 233.078V202.101H493.57L500 208.555V226.623L493.57 233.078H469.775ZM477.267 226.652H489.868L492.508 224.001V211.178L489.868 208.527H477.267V226.652Z" fill="white"/>
<path d="M63.2318 274.577V267.935C63.2318 267.329 63.0165 266.811 62.5788 266.371C62.1483 265.939 61.6316 265.723 61.0288 265.723H52.2098V276.788H61.0288C61.6316 276.788 62.1483 276.572 62.5788 276.133C63.0165 275.701 63.2318 275.182 63.2318 274.577ZM65.4348 267.935V274.577C65.4348 275.355 65.241 276.082 64.8535 276.752C64.4589 277.422 63.935 277.97 63.2605 278.38C62.5932 278.791 61.8469 279 61.0288 279H50.0068V263.511H61.0288C61.8182 263.511 62.5429 263.706 63.1959 264.109C63.8489 264.505 64.3871 265.039 64.7961 265.701C65.2051 266.364 65.4204 267.106 65.4348 267.935Z" fill="white"/>
<path d="M81.7066 265.723H75.0905C74.4877 265.723 73.9711 265.939 73.5334 266.371C73.1028 266.811 72.8875 267.329 72.8875 267.935V272.358H83.9095V267.935C83.9095 267.329 83.6943 266.811 83.2565 266.371C82.826 265.939 82.3093 265.723 81.7066 265.723ZM86.1125 267.935V279H83.9095V274.577H72.8875V279H70.6846V267.935C70.6846 267.149 70.8783 266.429 71.2658 265.752C71.6533 265.082 72.1843 264.541 72.8517 264.131C73.519 263.713 74.2653 263.511 75.0905 263.511H81.7066C82.4959 263.511 83.2207 263.706 83.8737 264.109C84.5267 264.505 85.0648 265.039 85.4739 265.701C85.8829 266.364 86.0982 267.106 86.1125 267.935Z" fill="white"/>
<path d="M106.787 274.577C106.787 275.355 106.594 276.082 106.206 276.752C105.819 277.422 105.288 277.97 104.62 278.38C103.953 278.791 103.207 279 102.381 279H95.7653C94.976 279 94.244 278.806 93.5839 278.416C92.9237 278.02 92.3927 277.494 91.998 276.817C91.6034 276.147 91.3881 275.398 91.3594 274.577H93.5623C93.5623 275.182 93.7776 275.701 94.2153 276.133C94.6459 276.572 95.1625 276.788 95.7653 276.788H102.381C102.984 276.788 103.501 276.572 103.931 276.133C104.369 275.701 104.584 275.182 104.584 274.577C104.584 273.972 104.369 273.446 103.931 273.013C103.501 272.581 102.984 272.358 102.381 272.358H95.7653C94.9903 272.358 94.2584 272.163 93.5839 271.774C92.9093 271.385 92.3712 270.852 91.9621 270.182C91.5603 269.512 91.3594 268.763 91.3594 267.935C91.3594 267.149 91.5531 266.429 91.9406 265.752C92.3353 265.082 92.8591 264.541 93.5265 264.131C94.201 263.713 94.9473 263.511 95.7653 263.511H102.381C103.171 263.511 103.895 263.706 104.548 264.109C105.209 264.505 105.74 265.039 106.149 265.701C106.565 266.364 106.773 267.106 106.787 267.935H104.584C104.584 267.329 104.369 266.811 103.931 266.371C103.501 265.939 102.984 265.723 102.381 265.723H95.7653C95.1625 265.723 94.6459 265.939 94.2153 266.371C93.7776 266.811 93.5623 267.329 93.5623 267.935C93.5623 268.54 93.7776 269.058 94.2153 269.498C94.6459 269.93 95.1625 270.146 95.7653 270.146H102.381C103.156 270.146 103.881 270.348 104.548 270.744C105.223 271.14 105.761 271.673 106.17 272.336C106.586 272.999 106.787 273.748 106.787 274.577Z" fill="white"/>
<path d="M114.242 263.511V270.146H125.264V263.511H127.467V279H125.264V272.358H114.242V279H112.039V263.511H114.242Z" fill="white"/>
<path d="M143.959 279H132.937V263.511H143.959C144.734 263.511 145.458 263.706 146.126 264.109C146.793 264.505 147.338 265.039 147.747 265.701C148.156 266.364 148.364 267.106 148.364 267.935C148.364 269.26 147.862 270.37 146.865 271.256C147.862 272.142 148.364 273.244 148.364 274.577C148.364 275.369 148.171 276.104 147.783 276.767C147.389 277.43 146.865 277.963 146.19 278.359C145.523 278.755 144.777 278.971 143.959 279ZM143.959 272.358H135.139V276.788H143.959C144.561 276.788 145.078 276.572 145.508 276.133C145.946 275.701 146.161 275.182 146.161 274.577C146.161 273.972 145.946 273.446 145.508 273.013C145.078 272.581 144.561 272.358 143.959 272.358ZM135.139 265.723V270.146H143.959C144.561 270.146 145.078 269.93 145.508 269.498C145.946 269.058 146.161 268.54 146.161 267.935C146.161 267.329 145.946 266.811 145.508 266.371C145.078 265.939 144.561 265.723 143.959 265.723H135.139Z" fill="white"/>
<path d="M166.617 274.577V267.935C166.617 267.329 166.401 266.811 165.964 266.371C165.533 265.939 165.016 265.723 164.414 265.723H157.798C157.195 265.723 156.678 265.939 156.248 266.371C155.81 266.811 155.595 267.329 155.595 267.935V274.577C155.595 275.182 155.81 275.701 156.248 276.133C156.678 276.572 157.195 276.788 157.798 276.788H164.414C165.016 276.788 165.533 276.572 165.964 276.133C166.401 275.701 166.617 275.182 166.617 274.577ZM168.82 267.935V274.577C168.82 275.384 168.626 276.126 168.224 276.796C167.829 277.473 167.298 278.006 166.631 278.402C165.956 278.798 165.224 279 164.414 279H157.798C156.994 279 156.255 278.798 155.587 278.402C154.913 278.006 154.382 277.473 153.987 276.796C153.593 276.126 153.392 275.384 153.392 274.577V267.935C153.392 267.12 153.593 266.378 153.987 265.708C154.382 265.039 154.913 264.505 155.587 264.109C156.255 263.706 156.994 263.511 157.798 263.511H164.414C165.189 263.511 165.913 263.713 166.581 264.116C167.255 264.52 167.793 265.06 168.202 265.723C168.619 266.386 168.82 267.12 168.82 267.935Z" fill="white"/>
<path d="M185.093 265.723H178.477C177.874 265.723 177.358 265.939 176.92 266.371C176.49 266.811 176.274 267.329 176.274 267.935V272.358H187.296V267.935C187.296 267.329 187.081 266.811 186.643 266.371C186.213 265.939 185.696 265.723 185.093 265.723ZM189.499 267.935V279H187.296V274.577H176.274V279H174.071V267.935C174.071 267.149 174.265 266.429 174.653 265.752C175.04 265.082 175.571 264.541 176.238 264.131C176.906 263.713 177.652 263.511 178.477 263.511H185.093C185.883 263.511 186.607 263.706 187.26 264.109C187.913 264.505 188.452 265.039 188.861 265.701C189.27 266.364 189.485 267.106 189.499 267.935Z" fill="white"/>
<path d="M208.194 270.146V267.935C208.194 267.329 207.978 266.811 207.541 266.371C207.11 265.939 206.594 265.723 205.991 265.723H197.172V272.358H205.991C206.594 272.358 207.11 272.142 207.541 271.709C207.978 271.27 208.194 270.751 208.194 270.146ZM210.397 279H208.832L204.419 274.577H197.172V279H194.969V263.511H205.991C206.766 263.511 207.49 263.706 208.158 264.109C208.825 264.505 209.371 265.039 209.78 265.701C210.189 266.364 210.397 267.106 210.397 267.935V270.146C210.397 271.09 210.117 271.954 209.55 272.725C208.983 273.503 208.244 274.044 207.333 274.353L210.397 277.43V279Z" fill="white"/>
<path d="M228.87 274.577V267.935C228.87 267.329 228.655 266.811 228.217 266.371C227.787 265.939 227.27 265.723 226.668 265.723H217.848V276.788H226.668C227.27 276.788 227.787 276.572 228.217 276.133C228.655 275.701 228.87 275.182 228.87 274.577ZM231.073 267.935V274.577C231.073 275.355 230.88 276.082 230.492 276.752C230.098 277.422 229.574 277.97 228.899 278.38C228.232 278.791 227.486 279 226.668 279H215.646V263.511H226.668C227.457 263.511 228.182 263.706 228.835 264.109C229.488 264.505 230.026 265.039 230.435 265.701C230.844 266.364 231.059 267.106 231.073 267.935Z" fill="white"/>
<path d="M251.529 274.577C251.529 275.355 251.335 276.082 250.947 276.752C250.56 277.422 250.029 277.97 249.361 278.38C248.694 278.791 247.948 279 247.123 279H240.507C239.717 279 238.985 278.806 238.325 278.416C237.665 278.02 237.134 277.494 236.739 276.817C236.345 276.147 236.129 275.398 236.101 274.577H238.304C238.304 275.182 238.519 275.701 238.957 276.133C239.387 276.572 239.904 276.788 240.507 276.788H247.123C247.725 276.788 248.242 276.572 248.673 276.133C249.11 275.701 249.326 275.182 249.326 274.577C249.326 273.972 249.11 273.446 248.673 273.013C248.242 272.581 247.725 272.358 247.123 272.358H240.507C239.732 272.358 239 272.163 238.325 271.774C237.651 271.385 237.112 270.852 236.703 270.182C236.302 269.512 236.101 268.763 236.101 267.935C236.101 267.149 236.294 266.429 236.682 265.752C237.076 265.082 237.6 264.541 238.268 264.131C238.942 263.713 239.688 263.511 240.507 263.511H247.123C247.912 263.511 248.637 263.706 249.29 264.109C249.95 264.505 250.481 265.039 250.89 265.701C251.306 266.364 251.514 267.106 251.529 267.935H249.326C249.326 267.329 249.11 266.811 248.673 266.371C248.242 265.939 247.725 265.723 247.123 265.723H240.507C239.904 265.723 239.387 265.939 238.957 266.371C238.519 266.811 238.304 267.329 238.304 267.935C238.304 268.54 238.519 269.058 238.957 269.498C239.387 269.93 239.904 270.146 240.507 270.146H247.123C247.898 270.146 248.622 270.348 249.29 270.744C249.964 271.14 250.502 271.673 250.911 272.336C251.328 272.999 251.529 273.748 251.529 274.577Z" fill="white"/>
<path d="M283.184 265.723H276.575V279H274.372V265.723H267.756V263.511H283.184V265.723Z" fill="white"/>
<path d="M289.757 263.511V270.146H300.779V263.511H302.982V279H300.779V272.358H289.757V279H287.554V263.511H289.757Z" fill="white"/>
<path d="M319.473 265.723H312.857C312.254 265.723 311.738 265.939 311.3 266.371C310.869 266.811 310.654 267.329 310.654 267.935V272.358H321.676V267.935C321.676 267.329 321.461 266.811 321.023 266.371C320.593 265.939 320.076 265.723 319.473 265.723ZM323.879 267.935V279H321.676V274.577H310.654V279H308.451V267.935C308.451 267.149 308.645 266.429 309.032 265.752C309.42 265.082 309.951 264.541 310.618 264.131C311.286 263.713 312.032 263.511 312.857 263.511H319.473C320.263 263.511 320.987 263.706 321.64 264.109C322.293 264.505 322.831 265.039 323.24 265.701C323.649 266.364 323.865 267.106 323.879 267.935Z" fill="white"/>
<path d="M343.672 265.723H337.063V279H334.86V265.723H328.244V263.511H343.672V265.723Z" fill="white"/>
<path d="M366.509 272.358V270.146H375.328V274.577C375.328 275.355 375.135 276.082 374.747 276.752C374.36 277.422 373.829 277.97 373.161 278.38C372.494 278.791 371.748 279 370.922 279H364.306C363.531 279 362.799 278.806 362.125 278.416C361.45 278.02 360.912 277.494 360.503 276.817C360.101 276.147 359.9 275.398 359.9 274.577V267.935C359.9 267.149 360.094 266.429 360.482 265.752C360.876 265.082 361.4 264.541 362.067 264.131C362.742 263.713 363.488 263.511 364.306 263.511H370.922C371.712 263.511 372.436 263.706 373.089 264.109C373.75 264.505 374.281 265.039 374.69 265.701C375.106 266.364 375.314 267.106 375.328 267.935H373.125C373.125 267.329 372.91 266.811 372.472 266.371C372.042 265.939 371.525 265.723 370.922 265.723H364.306C363.704 265.723 363.187 265.939 362.756 266.371C362.319 266.811 362.103 267.329 362.103 267.935V274.577C362.103 275.182 362.319 275.701 362.756 276.133C363.187 276.572 363.704 276.788 364.306 276.788H370.922C371.525 276.788 372.042 276.572 372.472 276.133C372.91 275.701 373.125 275.182 373.125 274.577V272.358H366.509Z" fill="white"/>
<path d="M382.782 265.723V270.146H393.804V272.358H382.782V276.788H396.007V279H380.579V263.511H396.007V265.723H382.782Z" fill="white"/>
<path d="M415.36 265.723H408.751V279H406.548V265.723H399.932V263.511H415.36V265.723Z" fill="white"/>
<path d="M431.81 263.511H434.013V279H431.81V263.511Z" fill="white"/>
<path d="M453.804 265.723H447.195V279H444.992V265.723H438.376V263.511H453.804V265.723Z" fill="white"/>
<defs>
<linearGradient id="paint0_linear_106_7344" x1="183.827" y1="-36.2918" x2="330.689" y2="219.785" gradientUnits="userSpaceOnUse">
<stop stop-color="#4B5FFA"/>
<stop offset="1" stop-color="#C158E4"/>
</linearGradient>
</defs>
</svg>
